<?xml version="1.0" encoding="UTF-8" standalone="no"?>
<!DOCTYPE svg PUBLIC "-//W3C//DTD SVG 1.1//EN" "http://www.w3.org/Graphics/SVG/1.1/DTD/svg11.dtd">
<svg width="100%" height="100%" viewBox="0 0 126 130" version="1.1" xmlns="http://www.w3.org/2000/svg" xmlns:xlink="http://www.w3.org/1999/xlink" xml:space="preserve" xmlns:serif="http://www.serif.com/" style="fill-rule:evenodd;clip-rule:evenodd;stroke-linecap:round;stroke-linejoin:round;stroke-miterlimit:1.5;">
    <g transform="matrix(1,0,0,1,-1089.1,-48.0005)">
        <path d="M1147.86,48.169C1194.91,45.226 1213.66,81.496 1214.81,107.849C1216.3,142.167 1195.07,175.827 1155.48,177.791C1117.83,179.658 1091.34,146.793 1089.26,116.223C1086.91,81.718 1110.85,50.484 1147.86,48.169Z" style="fill:rgb(250,95,91);"/>
        <g>
            <path d="M1120.69,102.35C1141.25,93.804 1158.88,95.623 1173.99,106.42L1174.15,135.356C1156.08,150.936 1137.79,151.623 1119.25,134.471L1120.69,102.35Z" style="fill:rgb(250,95,91);"/>
            <g>
                <path d="M1174.15,129.767C1156.08,144.289 1138.15,145.435 1119.61,129.34" style="fill:none;fill-rule:nonzero;stroke:black;stroke-width:1.44px;"/>
            </g>
            <path d="M1120.69,102.35C1141.25,93.804 1158.88,95.623 1173.99,106.42L1174.15,135.356C1156.08,150.936 1137.79,151.623 1119.25,134.471L1120.69,102.35Z" style="fill:none;stroke:black;stroke-width:1.44px;"/>
            <path d="M1107.34,89.255L1107.34,94.486L1147.06,117.626L1189.69,99.819L1189.69,95.067L1147.38,112.011L1107.34,89.255ZM1147.38,112.011L1147.38,117.446L1147.38,112.011ZM1107.34,89.21L1147.19,112.011L1189.69,94.966L1149.4,80.356L1107.34,89.21Z" style="fill:rgb(250,95,91);"/>
            <path d="M1147.38,112.011L1189.69,95.067L1189.69,99.819L1147.06,117.626L1107.34,94.486L1107.34,89.255L1147.38,112.011ZM1147.38,112.011L1147.38,117.446M1107.34,89.21L1147.19,112.011L1189.69,94.966L1149.4,80.356L1107.34,89.21Z" style="fill:none;fill-rule:nonzero;stroke:black;stroke-width:1.44px;"/>
            <path d="M1148.83,90.452C1151.51,90.452 1154.61,91.766 1154.61,93.393C1154.61,95.019 1151.51,96.346 1148.83,96.346C1146.13,96.346 1143.36,95.057 1143.36,93.43C1143.36,91.804 1146.13,90.452 1148.83,90.452ZM1143.23,93.365L1127.93,99.7C1125.96,100.487 1124.65,101.868 1124.07,103.893L1123.11,114.95C1119.69,116.436 1118.99,118.235 1119.13,120.803L1128.77,121.189C1128.9,119.165 1128.61,116.563 1126.57,115.469L1127.18,105.753C1127.57,103.953 1128.61,102.621 1130.24,102.059L1145.32,95.662M1119.53,121.015C1117.02,130.308 1118.69,136.281 1123.16,136.65C1127.71,137.026 1129.7,131.006 1128.18,121.189" style="fill:rgb(250,95,91);"/>
            <path d="M1143.23,93.365L1127.93,99.7C1125.96,100.487 1124.65,101.868 1124.07,103.893L1123.11,114.95C1119.69,116.436 1118.99,118.235 1119.13,120.803L1128.77,121.189C1128.9,119.165 1128.61,116.563 1126.57,115.469L1127.18,105.753C1127.57,103.953 1128.61,102.621 1130.24,102.059L1145.32,95.662M1119.53,121.015C1117.02,130.308 1118.69,136.281 1123.16,136.65C1127.71,137.026 1129.7,131.006 1128.18,121.189M1148.83,90.452C1151.51,90.452 1154.61,91.766 1154.61,93.393C1154.61,95.019 1151.51,96.346 1148.83,96.346C1146.13,96.346 1143.36,95.057 1143.36,93.43C1143.36,91.804 1146.13,90.452 1148.83,90.452Z" style="fill:none;fill-rule:nonzero;stroke:black;stroke-width:1.44px;"/>
        </g>
    </g>
</svg>
