<?xml version="1.0" encoding="UTF-8" standalone="no"?>
<!DOCTYPE svg PUBLIC "-//W3C//DTD SVG 1.1//EN" "http://www.w3.org/Graphics/SVG/1.1/DTD/svg11.dtd">
<svg width="100%" height="100%" viewBox="0 0 126 130" version="1.1" xmlns="http://www.w3.org/2000/svg" xmlns:xlink="http://www.w3.org/1999/xlink" xml:space="preserve" xmlns:serif="http://www.serif.com/" style="fill-rule:evenodd;clip-rule:evenodd;stroke-linecap:round;stroke-linejoin:round;stroke-miterlimit:1.5;">
    <g transform="matrix(1,0,0,1,-1089.1,-48.0005)">
        <path d="M1147.86,48.169C1194.91,45.226 1213.66,81.496 1214.81,107.849C1216.3,142.167 1195.07,175.827 1155.48,177.791C1117.83,179.658 1091.34,146.793 1089.26,116.223C1086.91,81.718 1110.85,50.484 1147.86,48.169Z" style="fill:none;"/>
        <g>
            <path d="M1120.69,102.35C1141.25,93.804 1158.88,95.623 1173.99,106.42L1174.15,135.356C1156.08,150.936 1137.79,151.623 1119.25,134.471L1120.69,102.35Z" style="fill:none;"/>
            <g>
                <path d="M1174.15,129.767C1156.08,144.289 1138.15,145.435 1119.61,129.34" style="fill:none;fill-rule:nonzero;stroke:black;stroke-width:1.44px;"/>
            </g>
            <path d="M1129.18,107.125C1135.38,110.839 1141.66,114.644 1147.16,117.626C1155.76,114.005 1168.5,108.679 1173.99,106.42L1174.15,135.356C1156.08,150.936 1137.79,151.623 1119.25,134.471L1120.69,102.35C1122.29,103.135 1123.73,104.062 1125.5,105.074" style="fill:none;stroke:black;stroke-width:1.44px;"/>
            <path d="M1131.96,103.247L1147.38,112.011L1189.69,95.067L1189.69,99.819L1147.06,117.626L1129.18,107.142" style="fill:none;fill-rule:nonzero;stroke:black;stroke-width:1.44px;"/>
            <path d="M1125.51,105.074L1107.34,94.486L1107.34,89.255L1128.63,101.356" style="fill:none;fill-rule:nonzero;stroke:black;stroke-width:1.44px;"/>
            <path d="M1147.38,112.011L1147.38,117.446" style="fill:none;fill-rule:nonzero;stroke:black;stroke-width:1.44px;"/>
            <path d="M1132.24,103.4L1147.19,112.011L1189.69,94.966L1149.4,80.356L1107.34,89.21L1128.47,101.247" style="fill:none;fill-rule:nonzero;stroke:black;stroke-width:1.44px;"/>
            <path d="M1148.93,90.716C1151.61,90.716 1155.61,91.766 1155.61,93.393C1155.61,95.019 1152.53,96.279 1148.83,96.346C1145.18,96.412 1142.36,95.057 1142.36,93.43C1142.36,91.804 1146.23,90.716 1148.93,90.716ZM1142.87,94.599C1142.87,94.599 1132.46,99.339 1129.4,100.995C1127.75,101.892 1126.03,103.564 1125.71,105.269C1125.38,106.976 1125.47,111.492 1125.47,111.492C1122.05,112.978 1121.82,114.846 1121.96,117.414L1130.83,118.626C1130.96,116.602 1130.67,113.105 1128.63,112.011C1128.63,112.011 1128.57,108.788 1128.63,107.279C1128.71,105.3 1130.24,103.907 1131.66,103.179C1134.87,101.537 1145.73,96.032 1145.73,96.032M1122.36,117.626C1120.86,126.04 1123.34,128.643 1126.42,129.34C1129.96,130.142 1131.36,125.229 1130.24,118.626" style="fill:none;stroke:black;stroke-width:1.4px;stroke-miterlimit:2;"/>
        </g>
    </g>
</svg>
