<?xml version="1.0" encoding="UTF-8" standalone="no"?>
<!DOCTYPE svg PUBLIC "-//W3C//DTD SVG 1.1//EN" "http://www.w3.org/Graphics/SVG/1.1/DTD/svg11.dtd">
<svg width="100%" height="100%" viewBox="0 0 126 131" version="1.1" xmlns="http://www.w3.org/2000/svg" xmlns:xlink="http://www.w3.org/1999/xlink" xml:space="preserve" xmlns:serif="http://www.serif.com/" style="fill-rule:evenodd;clip-rule:evenodd;stroke-linecap:round;stroke-linejoin:round;stroke-miterlimit:1.5;">
    <g transform="matrix(1,0,0,1,-873.695,-55.3848)">
        <path d="M873.702,118.578C873.31,94.008 890.083,53.054 937.013,55.489C983.943,57.924 1001.21,86.922 999.217,120.349C997.225,153.775 969.775,187.422 937.677,185.651C905.579,183.88 874.366,160.194 873.702,118.578Z" style="fill:none;"/>
        <g>
            <path d="M924.831,138.958C924.817,136.899 924.615,135.358 924.212,133.077C923.067,126.6 910.858,125.054 911.287,110.321C911.73,95.138 925.367,92.499 930.726,92.625C936.69,92.766 951.171,97.1 950.681,111.779C950.17,127.091 940.092,127.342 940.156,133.518C940.184,136.267 940.256,137.175 940.418,138.893" style="fill:none;"/>
            <g>
                <path d="M929.324,138.034C929.584,121.976 925.858,119.915 924.009,121.726C921.782,123.907 925.628,126.223 928.892,125.947C937.061,125.255 936.264,117.753 932.148,118.171C927.794,118.613 930.333,124.332 934.533,126.146C938.734,127.959 942.356,123.871 940.03,122.551C938.538,121.705 934.3,122.953 934.533,138.034" style="fill:none;fill-rule:nonzero;stroke:black;stroke-width:1.44px;"/>
            </g>
            <path d="M924.831,138.958C924.817,136.899 924.615,135.358 924.212,133.077C923.067,126.6 910.858,125.054 911.287,110.321C911.73,95.138 925.367,92.499 930.726,92.625C936.69,92.766 951.171,97.1 950.681,111.779C950.17,127.091 940.092,127.342 940.156,133.518C940.184,136.267 940.256,137.175 940.418,138.893" style="fill:none;fill-rule:nonzero;stroke:black;stroke-width:1.44px;"/>
            <path d="M925.146,154.906C922.995,151.363 922.118,142.522 923.206,140.129C924.294,137.735 937.786,137.12 941.848,139.731C944.28,145.222 942.475,152.821 941,154.607C939.622,156.276 926.37,156.923 925.146,154.906Z" style="fill:none;"/>
            <g>
                <path d="M942.596,150.542C938.971,149.99 932.945,150.004 929.325,150.512" style="fill:none;fill-rule:nonzero;stroke:black;stroke-width:1.44px;"/>
                <path d="M942.596,142.871C937.551,141.946 928.482,142.192 922.919,143.614" style="fill:none;fill-rule:nonzero;stroke:black;stroke-width:1.44px;"/>
                <path d="M942.957,146.575C938.519,146.058 930.944,145.909 926.291,147.098" style="fill:none;fill-rule:nonzero;stroke:black;stroke-width:1.44px;"/>
            </g>
            <path d="M925.146,154.906C922.995,151.363 922.118,142.522 923.206,140.129C924.294,137.735 937.786,137.12 941.848,139.731C944.28,145.222 942.475,152.821 941,154.607C939.622,156.276 926.37,156.923 925.146,154.906Z" style="fill:none;stroke:black;stroke-width:1.44px;"/>
            <path d="M901.459,127.577C900.355,126.473 902.753,124.342 905.105,124.338C906.853,124.335 905.659,126.202 903.019,127.598C902.345,127.859 901.843,127.848 901.459,127.577ZM961.42,121.688C957.774,119.574 958.671,117.916 962.639,119.434C965.369,120.479 965.854,121.096 964.784,122.165C963.994,122.955 963.482,122.883 961.42,121.688ZM894.14,106.864C893.266,104.586 897.717,103.624 900.119,105.572C901.642,106.806 901.065,107.213 897.466,107.442C896.022,107.539 894.498,107.705 894.14,106.864ZM959.234,97.328C957.908,96.886 961.391,94.332 963.32,94.332C964.285,94.101 965.068,95.929 964.285,96.527C963.927,96.885 959.847,97.532 959.234,97.328ZM904.673,90.801C902.335,89.945 902.321,89.93 902.706,88.716C903.111,87.44 904.09,87.456 906.26,88.774C910.17,91.149 909.157,92.443 904.673,90.801ZM943.592,84.347C943.598,83.024 944.607,80.217 945.277,79.662C945.686,79.344 946.159,79.316 946.719,79.677C947.559,80.375 947.295,81.636 945.893,83.627C944.935,84.986 943.587,85.408 943.592,84.347ZM923.282,82.524C922.32,82.655 920.476,79.113 920.633,77.745C920.695,77.198 921.073,76.861 921.815,76.766C923.282,76.766 923.991,78.007 923.991,80.574C923.987,81.507 923.973,82.43 923.282,82.524Z" style="fill-rule:nonzero;"/>
        </g>
    </g>
</svg>
