<?xml version="1.0" encoding="UTF-8" standalone="no"?>
<!DOCTYPE svg PUBLIC "-//W3C//DTD SVG 1.1//EN" "http://www.w3.org/Graphics/SVG/1.1/DTD/svg11.dtd">
<svg width="100%" height="100%" viewBox="0 0 135 137" version="1.1" xmlns="http://www.w3.org/2000/svg" xmlns:xlink="http://www.w3.org/1999/xlink" xml:space="preserve" xmlns:serif="http://www.serif.com/" style="fill-rule:evenodd;clip-rule:evenodd;stroke-linecap:round;stroke-linejoin:round;stroke-miterlimit:1.5;">
    <g transform="matrix(1,0,0,1,-973.737,-54.4665)">
        <path d="M1057.46,54.47C1023.93,54.091 983.183,84.262 975.538,109.659C971.361,123.537 974.403,142.01 985.136,156.85C996.385,172.403 1043.89,194.439 1069.46,189.91C1102.28,184.096 1111.27,152.642 1106.78,119.524C1101.93,83.652 1089.38,54.831 1057.46,54.47Z" style="fill:none;"/>
        <g>
            <path d="M1026.01,134.321C1025.97,134.316 1030.75,133.361 1035.74,132.42C1035.7,132.917 1035.71,133.238 1035.74,133.532C1036.75,134.561 1040.14,134.21 1041.17,133.627C1041.33,133.06 1041.4,131.929 1041.44,131.403C1042.59,131.196 1043.68,130.984 1044.48,130.85C1045.49,130.7 1046.53,130.958 1047.36,131.567C1047.85,131.928 1048.34,132.278 1048.82,132.625C1049.79,133.367 1050.29,134.581 1050.11,135.794C1049.93,137.007 1049.1,138.026 1047.95,138.453C1044.53,139.558 1039.89,140.82 1035.2,141.457C1034.46,141.554 1033.71,141.402 1033.06,141.025C1028.68,138.367 1026.01,134.321 1026.01,134.321Z" style="fill:none;stroke:black;stroke-width:1.08px;"/>
            <path d="M1041.8,125.076C1040.77,125.237 1037.28,125.887 1036.58,126.002C1036.18,128.005 1035.92,130.539 1035.74,133.525C1036.29,134.604 1040.36,134.194 1041.2,133.634C1041.5,131.205 1041.77,127.772 1041.8,125.076Z" style="fill:none;stroke:black;stroke-width:1.08px;"/>
            <path d="M1005.23,96.95C1004.73,93.15 1007.33,89.638 1011.11,89.006C1027.93,86.229 1044.62,84.184 1061.29,82.289C1065.04,81.864 1068.46,84.426 1069.11,88.137C1070.51,96.298 1071.47,104.341 1072.17,112.311C1072.48,115.874 1070.09,119.11 1066.6,119.875C1051,123.272 1035.02,126.433 1018.69,129.389C1015.02,130.05 1011.47,127.778 1010.53,124.176C1008.24,115.206 1006.47,106.13 1005.23,96.95Z" style="fill:none;"/>
            <g>
                <path d="M1008.56,97.733C1008.05,93.927 1009.52,92.168 1013.3,91.53C1027.9,89.108 1046.35,86.477 1060.83,84.78C1064.59,84.343 1066.02,85.234 1066.66,88.964C1067.76,95.572 1069.03,103.941 1069.61,110.406C1069.93,113.974 1068.99,116.176 1065.49,116.942C1051.91,119.905 1034.77,123.399 1020.58,126C1016.9,126.668 1014.54,126.309 1013.61,122.689C1011.77,115.361 1009.61,105.221 1008.56,97.733Z" style="fill:none;stroke:black;stroke-width:1.44px;"/>
                <path d="M1026.53,96.024C1026.52,96.215 1026.55,96.407 1026.54,96.598C1026.54,96.707 1022.32,101.028 1019.78,104.04C1019.75,104.077 1019.74,104.047 1019.19,104.143C1019.22,103.954 1019.08,103.762 1019.12,103.573C1019.12,103.56 1020.71,101.332 1022.39,99.542C1023.44,98.425 1025.09,96.869 1025.92,96.069C1025.96,96.036 1025.97,96.066 1026.53,96.024Z"/>
                <path d="M1055.69,89.872C1055.68,90.126 1055.77,90.378 1055.76,90.632C1055.75,90.703 1055.7,90.672 1054.29,92.513C1052.03,95.466 1038.99,113.151 1034.56,119.391C1034.53,119.431 1034.52,119.496 1034.47,119.511C1034.23,119.586 1033.96,119.574 1033.72,119.65C1033.79,119.406 1033.51,119.142 1033.58,118.897C1033.62,118.765 1043.55,103.946 1053.69,91.432C1054.21,90.799 1054.93,89.943 1054.93,89.943C1055.16,89.845 1055.45,89.97 1055.69,89.872Z"/>
                <path d="M1059.01,99.76C1059.01,99.951 1059.06,100.14 1059.06,100.331C1059.06,100.377 1058.59,100.786 1055.13,105.582C1051.91,110.064 1050.98,111.308 1049.17,113.952C1049.16,113.971 1049.15,114.002 1049.13,114.009C1048.95,114.063 1048.75,114.074 1048.57,114.128C1048.6,113.939 1048.42,113.755 1048.45,113.566C1048.46,113.484 1053.07,106.067 1057.84,100.499C1058.02,100.289 1058.44,99.809 1058.44,99.809C1058.62,99.738 1058.83,99.83 1059.01,99.76Z"/>
                <path d="M1061.49,105.338L1061.52,105.927C1060.5,107.326 1060.43,107.555 1059.17,109.084L1058.41,110.004L1057.84,110.116C1057.87,109.923 1057.72,109.726 1057.75,109.532C1057.75,109.532 1058.24,108.722 1058.8,107.901C1059.61,106.714 1060.69,105.617 1060.9,105.402C1060.94,105.368 1060.94,105.397 1061.49,105.338Z"/>
                <path d="M1037.8,91.023C1037.7,91.303 1037.82,91.624 1037.73,91.903C1037.65,92.144 1037.37,91.94 1025.98,106.375C1024.09,108.765 1020.12,113.823 1018.63,116.277C1018.59,116.347 1018.58,116.452 1018.51,116.488C1018.28,116.599 1018,116.583 1017.77,116.695C1017.75,116.44 1017.59,116.211 1017.57,115.956C1017.55,115.71 1023.12,106.928 1033.61,94.872C1035.77,92.386 1036.93,91.176 1036.93,91.176C1037.2,91.056 1037.53,91.143 1037.8,91.023Z"/>
            </g>
            <path d="M1005.23,96.95C1004.73,93.15 1007.33,89.638 1011.11,89.006C1027.93,86.229 1044.62,84.184 1061.29,82.289C1065.04,81.864 1067.85,82.523 1068.63,86.208C1070.33,94.268 1071.97,105.192 1072.33,113.275C1072.49,116.848 1070.09,119.11 1066.6,119.875C1051,123.272 1035.02,126.433 1018.69,129.389C1015.02,130.05 1011.47,127.778 1010.53,124.176C1008.24,115.206 1006.47,106.13 1005.23,96.95Z" style="fill:none;stroke:black;stroke-width:1.44px;"/>
            <g>
                <path d="M1068.91,138.949C1069.3,140.254 1074.99,143.898 1077.19,144.317C1079.03,144.67 1082.44,142.77 1082.05,141.465C1081.66,140.161 1077.02,137.188 1074.83,136.769C1072.73,136.367 1068.52,137.645 1068.91,138.949Z" style="fill:none;"/>
                <g>
                    <path d="M1070.74,137.289C1071.72,137.398 1072.75,137.726 1074.11,138.591" style="fill:none;fill-rule:nonzero;stroke:black;stroke-width:1.08px;"/>
                </g>
                <path d="M1068.91,138.949C1069.3,140.254 1074.99,143.898 1077.19,144.317C1079.03,144.67 1082.44,142.77 1082.05,141.465C1081.66,140.161 1077.02,137.188 1074.83,136.769C1072.73,136.367 1068.52,137.645 1068.91,138.949Z" style="fill:none;stroke:black;stroke-width:1.08px;"/>
            </g>
            <path d="M1064.71,146.441C1063.3,144.568 1062.84,142.144 1063.47,139.886C1064.1,137.627 1065.75,135.791 1067.93,134.92C1069.41,134.327 1070.93,133.812 1072.34,133.437C1074.23,132.953 1076.23,133.223 1077.93,134.19C1079.34,135.058 1080.92,136.182 1082.44,137.398C1084.48,139.025 1085.53,141.592 1085.22,144.182C1084.91,146.772 1083.28,149.016 1080.91,150.113C1079.19,150.911 1077.41,151.647 1075.81,152.208C1073.06,153.136 1070.03,152.403 1068.01,150.324C1066.89,149.174 1065.75,147.815 1064.71,146.441Z" style="fill:none;stroke:black;stroke-width:1.08px;"/>
            <path d="M1011.63,157.657C1013.04,160.12 1015.73,161.553 1018.56,161.34C1028.19,160.607 1045.38,158.984 1056.04,157.59C1058.23,157.173 1060.1,155.754 1061.09,153.756C1062.08,151.758 1062.07,149.412 1061.08,147.417C1060.9,147.044 1060.72,146.689 1060.54,146.354C1059.65,144.696 1057.92,143.665 1056.03,143.674C1044.86,144.096 1012.9,146.876 1007.73,147.763C1007.04,148.402 1007.04,151.213 1007.06,152.15C1007.06,152.324 1007.19,152.47 1007.36,152.493C1007.86,152.563 1008.85,152.698 1009.27,152.756C1009.4,152.773 1009.5,152.855 1009.55,152.97C1009.8,153.588 1010.66,155.643 1011.63,157.657Z" style="fill:none;"/>
            <g>
                <path d="M1056.32,143.661C1057.97,147.046 1059.38,150.479 1060.47,153.975" style="fill:none;fill-rule:nonzero;stroke:black;stroke-width:1.08px;"/>
                <path d="M1052.96,144.081C1054.61,147.456 1056.19,150.88 1057.28,154.367" style="fill:none;fill-rule:nonzero;stroke:black;stroke-width:1.08px;"/>
                <path d="M1008.55,147.895C1010.58,151.199 1013.08,155.664 1014.58,159.56C1014.78,160.078 1014.59,160.729 1014.52,161.309" style="fill:none;fill-rule:nonzero;stroke:black;stroke-width:1.08px;"/>
                <path d="M1019.52,146.702C1021.48,149.88 1022.52,152.059 1023.98,155.859" style="fill:none;fill-rule:nonzero;stroke:black;stroke-width:1.08px;"/>
                <path d="M1031.57,145.604C1033.49,148.725 1035.17,152.835 1036.52,156.624" style="fill:none;fill-rule:nonzero;stroke:black;stroke-width:1.08px;"/>
                <path d="M1027.88,145.819C1029.5,148.449 1030.85,151.579 1032.09,154.892" style="fill:none;fill-rule:nonzero;stroke:black;stroke-width:1.08px;"/>
                <path d="M1024,146.205C1025.62,148.835 1026.86,151.98 1028.1,155.293" style="fill:none;fill-rule:nonzero;stroke:black;stroke-width:1.08px;"/>
                <path d="M1034.78,145.363C1036.71,148.492 1038.54,152.647 1039.89,156.444" style="fill:none;fill-rule:nonzero;stroke:black;stroke-width:1.08px;"/>
                <path d="M1016.57,146.929C1018.57,150.172 1020.21,154.364 1021.58,158.256" style="fill:none;fill-rule:nonzero;stroke:black;stroke-width:1.08px;"/>
                <path d="M1012.88,147.086C1014.88,150.329 1016.77,154.867 1018.13,158.759" style="fill:none;fill-rule:nonzero;stroke:black;stroke-width:1.08px;"/>
                <path d="M1038.4,145.183C1040.26,148.198 1042.2,152.332 1043.54,156.025" style="fill:none;fill-rule:nonzero;stroke:black;stroke-width:1.08px;"/>
                <path d="M1014.67,159.274C1017.48,158.991 1058.62,154.357 1063.53,154.093" style="fill:none;fill-rule:nonzero;stroke:black;stroke-width:1.08px;"/>
                <path d="M1013.79,156.985C1016.6,156.702 1057.6,152.216 1062.5,151.952" style="fill:none;fill-rule:nonzero;stroke:black;stroke-width:1.08px;"/>
                <path d="M1011.07,152.296C1013.88,152.013 1035.67,149.745 1040.57,149.258" style="fill:none;fill-rule:nonzero;stroke:black;stroke-width:1.08px;"/>
                <path d="M1044.65,148.795C1047.46,148.512 1056.87,147.797 1060.98,147.533" style="fill:none;fill-rule:nonzero;stroke:black;stroke-width:1.08px;"/>
                <path d="M1012.56,154.335C1015.36,154.052 1056.73,150 1061.63,149.736" style="fill:none;fill-rule:nonzero;stroke:black;stroke-width:1.08px;"/>
                <path d="M1010.38,149.736C1013.18,149.453 1054.83,145.595 1059.73,145.331" style="fill:none;fill-rule:nonzero;stroke:black;stroke-width:1.08px;"/>
                <path d="M1042.05,144.846C1043.92,147.887 1046,151.948 1047.45,155.622" style="fill:none;fill-rule:nonzero;stroke:black;stroke-width:1.08px;"/>
                <path d="M1049.69,144.345C1051.51,147.308 1053,151.196 1054.23,154.776" style="fill:none;fill-rule:nonzero;stroke:black;stroke-width:1.08px;"/>
                <path d="M1045.62,144.345C1047.51,147.424 1049.63,151.5 1051.09,155.193" style="fill:none;fill-rule:nonzero;stroke:black;stroke-width:1.08px;"/>
            </g>
            <path d="M1012.21,159.714C1013.14,161.642 1014.4,161.731 1016.78,161.518C1026.4,160.657 1050.55,158.18 1061.21,156.786C1063.4,156.369 1063.88,154.925 1063.29,152.97C1062.8,151.363 1060.27,145.918 1059.73,144.914C1058.84,143.257 1057.92,143.665 1056.03,143.674C1044.86,144.096 1012.9,146.876 1007.73,147.763C1007.04,148.402 1007.04,151.213 1007.06,152.15C1007.06,152.324 1007.19,152.47 1007.36,152.493C1007.86,152.563 1008.78,152.997 1009.1,153.375C1009.19,153.475 1009.24,153.562 1009.29,153.677C1009.54,154.295 1011.24,157.7 1012.21,159.714Z" style="fill:none;stroke:black;stroke-width:1.08px;"/>
        </g>
    </g>
</svg>
