<?xml version="1.0" encoding="UTF-8" standalone="no"?>
<!DOCTYPE svg PUBLIC "-//W3C//DTD SVG 1.1//EN" "http://www.w3.org/Graphics/SVG/1.1/DTD/svg11.dtd">
<svg width="100%" height="100%" viewBox="0 0 965 200" version="1.1" xmlns="http://www.w3.org/2000/svg" xmlns:xlink="http://www.w3.org/1999/xlink" xml:space="preserve" xmlns:serif="http://www.serif.com/" style="fill-rule:evenodd;clip-rule:evenodd;stroke-linecap:round;stroke-linejoin:round;stroke-miterlimit:1.5;">
    <g transform="matrix(1,0,0,1,-497.692,-20)">
        <g>
            <g transform="matrix(0.502404,0,0,1,497.692,20)">
                <rect x="0" y="0" width="1920" height="200" style="fill:white;"/>
            </g>
            <g transform="matrix(1,0,0,1,56.8635,0)">
                <path d="M1239.01,51.034C1287.89,46.452 1323.92,77.104 1324.68,103.736C1325.5,132.55 1287.56,186.166 1245.21,176.77C1209.54,168.855 1200.28,121.42 1199.17,95.307C1198.27,74.289 1217.76,53.027 1239.01,51.034Z" style="fill:rgb(218,182,194);"/>
            </g>
            <g transform="matrix(1,0,0,1,56.8635,0)">
                <path d="M1239.01,51.034C1287.89,46.452 1323.92,77.104 1324.68,103.736C1325.5,132.55 1287.56,186.166 1245.21,176.77C1209.54,168.855 1200.28,121.42 1199.17,95.307C1198.27,74.289 1217.76,53.027 1239.01,51.034Z" style="fill:none;"/>
            </g>
            <g transform="matrix(1,0,0,1,56.8635,0)">
                <path d="M1290.67,107.008C1295.03,106.322 1296.46,109.072 1296.23,111.945" style="fill:none;fill-rule:nonzero;stroke:black;stroke-width:1.44px;"/>
                <path d="M1228.97,110.514C1238.47,122.67 1271.25,131.76 1291.87,110.854" style="fill:none;fill-rule:nonzero;stroke:black;stroke-width:1.44px;"/>
                <path d="M1224.92,112.148C1224.41,107.772 1227.22,106.453 1230.08,106.793" style="fill:none;fill-rule:nonzero;stroke:black;stroke-width:1.44px;"/>
            </g>
            <g transform="matrix(1,0,0,1,56.8635,0)">
                <path d="M873.702,118.578C873.31,94.008 890.083,53.054 937.013,55.489C983.943,57.924 1001.21,86.922 999.217,120.349C997.225,153.775 969.775,187.422 937.677,185.651C905.579,183.88 874.366,160.194 873.702,118.578Z" style="fill:rgb(91,170,174);"/>
            </g>
            <g transform="matrix(1,0,0,1,56.8635,0)">
                <path d="M873.702,118.578C873.31,94.008 890.083,53.054 937.013,55.489C983.943,57.924 1001.21,86.922 999.217,120.349C997.225,153.775 969.775,187.422 937.677,185.651C905.579,183.88 874.366,160.194 873.702,118.578Z" style="fill:none;"/>
            </g>
            <g transform="matrix(1,0,0,1,56.8635,0)">
                <path d="M924.831,138.958C924.817,136.899 924.615,135.358 924.212,133.077C923.067,126.6 910.858,125.054 911.287,110.321C911.73,95.138 925.367,92.499 930.726,92.625C936.69,92.766 951.171,97.1 950.681,111.779C950.17,127.091 940.092,127.342 940.156,133.518C940.184,136.267 940.256,137.175 940.418,138.893" style="fill:none;"/>
                <g>
                    <path d="M929.324,138.034C929.584,121.976 925.858,119.915 924.009,121.726C921.782,123.907 925.628,126.223 928.892,125.947C937.061,125.255 936.264,117.753 932.148,118.171C927.794,118.613 930.333,124.332 934.533,126.146C938.734,127.959 942.356,123.871 940.03,122.551C938.538,121.705 934.3,122.953 934.533,138.034" style="fill:none;fill-rule:nonzero;stroke:black;stroke-width:1.44px;"/>
                </g>
                <path d="M924.831,138.958C924.817,136.899 924.615,135.358 924.212,133.077C923.067,126.6 910.858,125.054 911.287,110.321C911.73,95.138 925.367,92.499 930.726,92.625C936.69,92.766 951.171,97.1 950.681,111.779C950.17,127.091 940.092,127.342 940.156,133.518C940.184,136.267 940.256,137.175 940.418,138.893" style="fill:none;fill-rule:nonzero;stroke:black;stroke-width:1.44px;"/>
                <path d="M925.146,154.906C922.995,151.363 922.118,142.522 923.206,140.129C924.294,137.735 937.786,137.12 941.848,139.731C944.28,145.222 942.475,152.821 941,154.607C939.622,156.276 926.37,156.923 925.146,154.906Z" style="fill:none;"/>
                <g>
                    <path d="M942.596,150.542C938.971,149.99 932.945,150.004 929.325,150.512" style="fill:none;fill-rule:nonzero;stroke:black;stroke-width:1.44px;"/>
                    <path d="M942.596,142.871C937.551,141.946 928.482,142.192 922.919,143.614" style="fill:none;fill-rule:nonzero;stroke:black;stroke-width:1.44px;"/>
                    <path d="M942.957,146.575C938.519,146.058 930.944,145.909 926.291,147.098" style="fill:none;fill-rule:nonzero;stroke:black;stroke-width:1.44px;"/>
                </g>
                <path d="M925.146,154.906C922.995,151.363 922.118,142.522 923.206,140.129C924.294,137.735 937.786,137.12 941.848,139.731C944.28,145.222 942.475,152.821 941,154.607C939.622,156.276 926.37,156.923 925.146,154.906Z" style="fill:none;stroke:black;stroke-width:1.44px;"/>
                <path d="M901.459,127.577C900.355,126.473 902.753,124.342 905.105,124.338C906.853,124.335 905.659,126.202 903.019,127.598C902.345,127.859 901.843,127.848 901.459,127.577ZM961.42,121.688C957.774,119.574 958.671,117.916 962.639,119.434C965.369,120.479 965.854,121.096 964.784,122.165C963.994,122.955 963.482,122.883 961.42,121.688ZM894.14,106.864C893.266,104.586 897.717,103.624 900.119,105.572C901.642,106.806 901.065,107.213 897.466,107.442C896.022,107.539 894.498,107.705 894.14,106.864ZM959.234,97.328C957.908,96.886 961.391,94.332 963.32,94.332C964.285,94.101 965.068,95.929 964.285,96.527C963.927,96.885 959.847,97.532 959.234,97.328ZM904.673,90.801C902.335,89.945 902.321,89.93 902.706,88.716C903.111,87.44 904.09,87.456 906.26,88.774C910.17,91.149 909.157,92.443 904.673,90.801ZM943.592,84.347C943.598,83.024 944.607,80.217 945.277,79.662C945.686,79.344 946.159,79.316 946.719,79.677C947.559,80.375 947.295,81.636 945.893,83.627C944.935,84.986 943.587,85.408 943.592,84.347ZM923.282,82.524C922.32,82.655 920.476,79.113 920.633,77.745C920.695,77.198 921.073,76.861 921.815,76.766C923.282,76.766 923.991,78.007 923.991,80.574C923.987,81.507 923.973,82.43 923.282,82.524Z" style="fill-rule:nonzero;"/>
            </g>
            <g transform="matrix(1,0,0,1,56.8635,0)">
                <path d="M1057.46,54.47C1023.93,54.091 983.183,84.262 975.538,109.659C971.361,123.537 974.403,142.01 985.136,156.85C996.385,172.403 1043.89,194.439 1069.46,189.91C1102.28,184.096 1111.27,152.642 1106.78,119.524C1101.93,83.652 1089.38,54.831 1057.46,54.47Z" style="fill:rgb(244,113,73);"/>
            </g>
            <g transform="matrix(1,0,0,1,56.8635,0)">
                <path d="M1057.46,54.47C1023.93,54.091 983.183,84.262 975.538,109.659C971.361,123.537 974.403,142.01 985.136,156.85C996.385,172.403 1043.89,194.439 1069.46,189.91C1102.28,184.096 1111.27,152.642 1106.78,119.524C1101.93,83.652 1089.38,54.831 1057.46,54.47Z" style="fill:none;"/>
            </g>
            <g transform="matrix(1,0,0,1,56.8635,0)">
                <path d="M1026.01,134.321C1025.97,134.316 1030.75,133.361 1035.74,132.42C1035.7,132.917 1035.71,133.238 1035.74,133.532C1036.75,134.561 1040.14,134.21 1041.17,133.627C1041.33,133.06 1041.4,131.929 1041.44,131.403C1042.59,131.196 1043.68,130.984 1044.48,130.85C1045.49,130.7 1046.53,130.958 1047.36,131.567C1047.85,131.928 1048.34,132.278 1048.82,132.625C1049.79,133.367 1050.29,134.581 1050.11,135.794C1049.93,137.007 1049.1,138.026 1047.95,138.453C1044.53,139.558 1039.89,140.82 1035.2,141.457C1034.46,141.554 1033.71,141.402 1033.06,141.025C1028.68,138.367 1026.01,134.321 1026.01,134.321Z" style="fill:none;stroke:black;stroke-width:1.08px;"/>
                <path d="M1041.8,125.076C1040.77,125.237 1037.28,125.887 1036.58,126.002C1036.18,128.005 1035.92,130.539 1035.74,133.525C1036.29,134.604 1040.36,134.194 1041.2,133.634C1041.5,131.205 1041.77,127.772 1041.8,125.076Z" style="fill:none;stroke:black;stroke-width:1.08px;"/>
                <path d="M1005.23,96.95C1004.73,93.15 1007.33,89.638 1011.11,89.006C1027.93,86.229 1044.62,84.184 1061.29,82.289C1065.04,81.864 1068.46,84.426 1069.11,88.137C1070.51,96.298 1071.47,104.341 1072.17,112.311C1072.48,115.874 1070.09,119.11 1066.6,119.875C1051,123.272 1035.02,126.433 1018.69,129.389C1015.02,130.05 1011.47,127.778 1010.53,124.176C1008.24,115.206 1006.47,106.13 1005.23,96.95Z" style="fill:none;"/>
                <g>
                    <path d="M1008.56,97.733C1008.05,93.927 1009.52,92.168 1013.3,91.53C1027.9,89.108 1046.35,86.477 1060.83,84.78C1064.59,84.343 1066.02,85.234 1066.66,88.964C1067.76,95.572 1069.03,103.941 1069.61,110.406C1069.93,113.974 1068.99,116.176 1065.49,116.942C1051.91,119.905 1034.77,123.399 1020.58,126C1016.9,126.668 1014.54,126.309 1013.61,122.689C1011.77,115.361 1009.61,105.221 1008.56,97.733Z" style="fill:none;stroke:black;stroke-width:1.44px;"/>
                    <path d="M1026.53,96.024C1026.52,96.215 1026.55,96.407 1026.54,96.598C1026.54,96.707 1022.32,101.028 1019.78,104.04C1019.75,104.077 1019.74,104.047 1019.19,104.143C1019.22,103.954 1019.08,103.762 1019.12,103.573C1019.12,103.56 1020.71,101.332 1022.39,99.542C1023.44,98.425 1025.09,96.869 1025.92,96.069C1025.96,96.036 1025.97,96.066 1026.53,96.024Z"/>
                    <path d="M1055.69,89.872C1055.68,90.126 1055.77,90.378 1055.76,90.632C1055.75,90.703 1055.7,90.672 1054.29,92.513C1052.03,95.466 1038.99,113.151 1034.56,119.391C1034.53,119.431 1034.52,119.496 1034.47,119.511C1034.23,119.586 1033.96,119.574 1033.72,119.65C1033.79,119.406 1033.51,119.142 1033.58,118.897C1033.62,118.765 1043.55,103.946 1053.69,91.432C1054.21,90.799 1054.93,89.943 1054.93,89.943C1055.16,89.845 1055.45,89.97 1055.69,89.872Z"/>
                    <path d="M1059.01,99.76C1059.01,99.951 1059.06,100.14 1059.06,100.331C1059.06,100.377 1058.59,100.786 1055.13,105.582C1051.91,110.064 1050.98,111.308 1049.17,113.952C1049.16,113.971 1049.15,114.002 1049.13,114.009C1048.95,114.063 1048.75,114.074 1048.57,114.128C1048.6,113.939 1048.42,113.755 1048.45,113.566C1048.46,113.484 1053.07,106.067 1057.84,100.499C1058.02,100.289 1058.44,99.809 1058.44,99.809C1058.62,99.738 1058.83,99.83 1059.01,99.76Z"/>
                    <path d="M1061.49,105.338L1061.52,105.927C1060.5,107.326 1060.43,107.555 1059.17,109.084L1058.41,110.004L1057.84,110.116C1057.87,109.923 1057.72,109.726 1057.75,109.532C1057.75,109.532 1058.24,108.722 1058.8,107.901C1059.61,106.714 1060.69,105.617 1060.9,105.402C1060.94,105.368 1060.94,105.397 1061.49,105.338Z"/>
                    <path d="M1037.8,91.023C1037.7,91.303 1037.82,91.624 1037.73,91.903C1037.65,92.144 1037.37,91.94 1025.98,106.375C1024.09,108.765 1020.12,113.823 1018.63,116.277C1018.59,116.347 1018.58,116.452 1018.51,116.488C1018.28,116.599 1018,116.583 1017.77,116.695C1017.75,116.44 1017.59,116.211 1017.57,115.956C1017.55,115.71 1023.12,106.928 1033.61,94.872C1035.77,92.386 1036.93,91.176 1036.93,91.176C1037.2,91.056 1037.53,91.143 1037.8,91.023Z"/>
                </g>
                <path d="M1005.23,96.95C1004.73,93.15 1007.33,89.638 1011.11,89.006C1027.93,86.229 1044.62,84.184 1061.29,82.289C1065.04,81.864 1067.85,82.523 1068.63,86.208C1070.33,94.268 1071.97,105.192 1072.33,113.275C1072.49,116.848 1070.09,119.11 1066.6,119.875C1051,123.272 1035.02,126.433 1018.69,129.389C1015.02,130.05 1011.47,127.778 1010.53,124.176C1008.24,115.206 1006.47,106.13 1005.23,96.95Z" style="fill:none;stroke:black;stroke-width:1.44px;"/>
                <g>
                    <path d="M1068.91,138.949C1069.3,140.254 1074.99,143.898 1077.19,144.317C1079.03,144.67 1082.44,142.77 1082.05,141.465C1081.66,140.161 1077.02,137.188 1074.83,136.769C1072.73,136.367 1068.52,137.645 1068.91,138.949Z" style="fill:none;"/>
                    <g>
                        <path d="M1070.74,137.289C1071.72,137.398 1072.75,137.726 1074.11,138.591" style="fill:none;fill-rule:nonzero;stroke:black;stroke-width:1.08px;"/>
                    </g>
                    <path d="M1068.91,138.949C1069.3,140.254 1074.99,143.898 1077.19,144.317C1079.03,144.67 1082.44,142.77 1082.05,141.465C1081.66,140.161 1077.02,137.188 1074.83,136.769C1072.73,136.367 1068.52,137.645 1068.91,138.949Z" style="fill:none;stroke:black;stroke-width:1.08px;"/>
                </g>
                <path d="M1064.71,146.441C1063.3,144.568 1062.84,142.144 1063.47,139.886C1064.1,137.627 1065.75,135.791 1067.93,134.92C1069.41,134.327 1070.93,133.812 1072.34,133.437C1074.23,132.953 1076.23,133.223 1077.93,134.19C1079.34,135.058 1080.92,136.182 1082.44,137.398C1084.48,139.025 1085.53,141.592 1085.22,144.182C1084.91,146.772 1083.28,149.016 1080.91,150.113C1079.19,150.911 1077.41,151.647 1075.81,152.208C1073.06,153.136 1070.03,152.403 1068.01,150.324C1066.89,149.174 1065.75,147.815 1064.71,146.441Z" style="fill:none;stroke:black;stroke-width:1.08px;"/>
                <path d="M1011.63,157.657C1013.04,160.12 1015.73,161.553 1018.56,161.34C1028.19,160.607 1045.38,158.984 1056.04,157.59C1058.23,157.173 1060.1,155.754 1061.09,153.756C1062.08,151.758 1062.07,149.412 1061.08,147.417C1060.9,147.044 1060.72,146.689 1060.54,146.354C1059.65,144.696 1057.92,143.665 1056.03,143.674C1044.86,144.096 1012.9,146.876 1007.73,147.763C1007.04,148.402 1007.04,151.213 1007.06,152.15C1007.06,152.324 1007.19,152.47 1007.36,152.493C1007.86,152.563 1008.85,152.698 1009.27,152.756C1009.4,152.773 1009.5,152.855 1009.55,152.97C1009.8,153.588 1010.66,155.643 1011.63,157.657Z" style="fill:none;"/>
                <g>
                    <path d="M1056.32,143.661C1057.97,147.046 1059.38,150.479 1060.47,153.975" style="fill:none;fill-rule:nonzero;stroke:black;stroke-width:1.08px;"/>
                    <path d="M1052.96,144.081C1054.61,147.456 1056.19,150.88 1057.28,154.367" style="fill:none;fill-rule:nonzero;stroke:black;stroke-width:1.08px;"/>
                    <path d="M1008.55,147.895C1010.58,151.199 1013.08,155.664 1014.58,159.56C1014.78,160.078 1014.59,160.729 1014.52,161.309" style="fill:none;fill-rule:nonzero;stroke:black;stroke-width:1.08px;"/>
                    <path d="M1019.52,146.702C1021.48,149.88 1022.52,152.059 1023.98,155.859" style="fill:none;fill-rule:nonzero;stroke:black;stroke-width:1.08px;"/>
                    <path d="M1031.57,145.604C1033.49,148.725 1035.17,152.835 1036.52,156.624" style="fill:none;fill-rule:nonzero;stroke:black;stroke-width:1.08px;"/>
                    <path d="M1027.88,145.819C1029.5,148.449 1030.85,151.579 1032.09,154.892" style="fill:none;fill-rule:nonzero;stroke:black;stroke-width:1.08px;"/>
                    <path d="M1024,146.205C1025.62,148.835 1026.86,151.98 1028.1,155.293" style="fill:none;fill-rule:nonzero;stroke:black;stroke-width:1.08px;"/>
                    <path d="M1034.78,145.363C1036.71,148.492 1038.54,152.647 1039.89,156.444" style="fill:none;fill-rule:nonzero;stroke:black;stroke-width:1.08px;"/>
                    <path d="M1016.57,146.929C1018.57,150.172 1020.21,154.364 1021.58,158.256" style="fill:none;fill-rule:nonzero;stroke:black;stroke-width:1.08px;"/>
                    <path d="M1012.88,147.086C1014.88,150.329 1016.77,154.867 1018.13,158.759" style="fill:none;fill-rule:nonzero;stroke:black;stroke-width:1.08px;"/>
                    <path d="M1038.4,145.183C1040.26,148.198 1042.2,152.332 1043.54,156.025" style="fill:none;fill-rule:nonzero;stroke:black;stroke-width:1.08px;"/>
                    <path d="M1014.67,159.274C1017.48,158.991 1058.62,154.357 1063.53,154.093" style="fill:none;fill-rule:nonzero;stroke:black;stroke-width:1.08px;"/>
                    <path d="M1013.79,156.985C1016.6,156.702 1057.6,152.216 1062.5,151.952" style="fill:none;fill-rule:nonzero;stroke:black;stroke-width:1.08px;"/>
                    <path d="M1011.07,152.296C1013.88,152.013 1035.67,149.745 1040.57,149.258" style="fill:none;fill-rule:nonzero;stroke:black;stroke-width:1.08px;"/>
                    <path d="M1044.65,148.795C1047.46,148.512 1056.87,147.797 1060.98,147.533" style="fill:none;fill-rule:nonzero;stroke:black;stroke-width:1.08px;"/>
                    <path d="M1012.56,154.335C1015.36,154.052 1056.73,150 1061.63,149.736" style="fill:none;fill-rule:nonzero;stroke:black;stroke-width:1.08px;"/>
                    <path d="M1010.38,149.736C1013.18,149.453 1054.83,145.595 1059.73,145.331" style="fill:none;fill-rule:nonzero;stroke:black;stroke-width:1.08px;"/>
                    <path d="M1042.05,144.846C1043.92,147.887 1046,151.948 1047.45,155.622" style="fill:none;fill-rule:nonzero;stroke:black;stroke-width:1.08px;"/>
                    <path d="M1049.69,144.345C1051.51,147.308 1053,151.196 1054.23,154.776" style="fill:none;fill-rule:nonzero;stroke:black;stroke-width:1.08px;"/>
                    <path d="M1045.62,144.345C1047.51,147.424 1049.63,151.5 1051.09,155.193" style="fill:none;fill-rule:nonzero;stroke:black;stroke-width:1.08px;"/>
                </g>
                <path d="M1012.21,159.714C1013.14,161.642 1014.4,161.731 1016.78,161.518C1026.4,160.657 1050.55,158.18 1061.21,156.786C1063.4,156.369 1063.88,154.925 1063.29,152.97C1062.8,151.363 1060.27,145.918 1059.73,144.914C1058.84,143.257 1057.92,143.665 1056.03,143.674C1044.86,144.096 1012.9,146.876 1007.73,147.763C1007.04,148.402 1007.04,151.213 1007.06,152.15C1007.06,152.324 1007.19,152.47 1007.36,152.493C1007.86,152.563 1008.78,152.997 1009.1,153.375C1009.19,153.475 1009.24,153.562 1009.29,153.677C1009.54,154.295 1011.24,157.7 1012.21,159.714Z" style="fill:none;stroke:black;stroke-width:1.08px;"/>
            </g>
            <g transform="matrix(1,0,0,1,56.8635,0)">
                <path d="M1147.86,48.169C1194.91,45.226 1213.66,81.496 1214.81,107.849C1216.3,142.167 1195.07,175.827 1155.48,177.791C1117.83,179.658 1091.34,146.793 1089.26,116.223C1086.91,81.718 1110.85,50.484 1147.86,48.169Z" style="fill:rgb(250,95,91);"/>
            </g>
            <g transform="matrix(1,0,0,1,56.8635,0)">
                <path d="M1147.86,48.169C1194.91,45.226 1213.66,81.496 1214.81,107.849C1216.3,142.167 1195.07,175.827 1155.48,177.791C1117.83,179.658 1091.34,146.793 1089.26,116.223C1086.91,81.718 1110.85,50.484 1147.86,48.169Z" style="fill:none;"/>
            </g>
            <g transform="matrix(1,0,0,1,56.8635,0)">
                <path d="M1120.69,102.35C1141.25,93.804 1158.88,95.623 1173.99,106.42L1174.15,135.356C1156.08,150.936 1137.79,151.623 1119.25,134.471L1120.69,102.35Z" style="fill:none;"/>
                <g>
                    <path d="M1174.15,129.767C1156.08,144.289 1138.15,145.435 1119.61,129.34" style="fill:none;fill-rule:nonzero;stroke:black;stroke-width:1.44px;"/>
                </g>
                <path d="M1129.18,107.125C1135.38,110.839 1141.66,114.644 1147.16,117.626C1155.76,114.005 1168.5,108.679 1173.99,106.42L1174.15,135.356C1156.08,150.936 1137.79,151.623 1119.25,134.471L1120.69,102.35C1122.29,103.135 1123.73,104.062 1125.5,105.074" style="fill:none;stroke:black;stroke-width:1.44px;"/>
                <path d="M1131.96,103.247L1147.38,112.011L1189.69,95.067L1189.69,99.819L1147.06,117.626L1129.18,107.142" style="fill:none;fill-rule:nonzero;stroke:black;stroke-width:1.44px;"/>
                <path d="M1125.51,105.074L1107.34,94.486L1107.34,89.255L1128.63,101.356" style="fill:none;fill-rule:nonzero;stroke:black;stroke-width:1.44px;"/>
                <path d="M1147.38,112.011L1147.38,117.446" style="fill:none;fill-rule:nonzero;stroke:black;stroke-width:1.44px;"/>
                <path d="M1132.24,103.4L1147.19,112.011L1189.69,94.966L1149.4,80.356L1107.34,89.21L1128.47,101.247" style="fill:none;fill-rule:nonzero;stroke:black;stroke-width:1.44px;"/>
                <path d="M1148.93,90.716C1151.61,90.716 1155.61,91.766 1155.61,93.393C1155.61,95.019 1152.53,96.279 1148.83,96.346C1145.18,96.412 1142.36,95.057 1142.36,93.43C1142.36,91.804 1146.23,90.716 1148.93,90.716ZM1142.87,94.599C1142.87,94.599 1132.46,99.339 1129.4,100.995C1127.75,101.892 1126.03,103.564 1125.71,105.269C1125.38,106.976 1125.47,111.492 1125.47,111.492C1122.05,112.978 1121.82,114.846 1121.96,117.414L1130.83,118.626C1130.96,116.602 1130.67,113.105 1128.63,112.011C1128.63,112.011 1128.57,108.788 1128.63,107.279C1128.71,105.3 1130.24,103.907 1131.66,103.179C1134.87,101.537 1145.73,96.032 1145.73,96.032M1122.36,117.626C1120.86,126.04 1123.34,128.643 1126.42,129.34C1129.96,130.142 1131.36,125.229 1130.24,118.626" style="fill:none;stroke:black;stroke-width:1.4px;stroke-miterlimit:2;"/>
            </g>
            <g transform="matrix(1,0,0,1,56.8635,0)">
                <path d="M568.731,131.011C568.731,137.893 566.499,143.287 562.035,147.193C557.757,150.913 552.177,152.773 545.202,152.773C538.134,152.773 532.461,150.913 528.276,147.193C523.812,143.287 521.58,137.893 521.58,131.011L521.58,88.696L528.09,88.696L528.09,131.941C528.09,136.777 529.764,140.404 533.205,142.915C536.181,145.147 540.18,146.263 545.202,146.263C552.921,146.263 558.129,143.659 560.826,138.451C561.756,136.684 562.221,134.545 562.221,131.941L562.221,88.696L568.731,88.696L568.731,131.011ZM587.792,120.595L602.486,120.595C606.113,120.595 609.089,119.386 611.507,116.968C613.925,114.457 615.134,111.388 615.134,107.575C615.134,103.855 613.925,100.879 611.693,98.461C609.368,96.136 606.299,94.927 602.486,94.927L587.792,94.927L587.792,120.595ZM621.644,107.761C621.644,113.341 619.598,117.898 615.692,121.618C611.879,125.152 607.136,126.919 601.556,126.919L587.792,126.919L587.792,151.936L581.282,151.936L581.282,88.696L601.556,88.696C607.136,88.696 611.786,90.463 615.692,93.997C619.598,97.624 621.644,102.181 621.644,107.761ZM680.726,157.051L659.987,101.995L639.248,157.051L624.461,88.696L631.157,88.696L640.922,134.638L659.987,84.976L678.959,134.638L688.817,88.696L695.42,88.696L680.726,157.051ZM759.051,120.13C759.051,113.062 756.447,106.924 751.425,101.809C746.31,96.787 740.172,94.183 733.011,94.183C725.85,94.183 719.712,96.787 714.69,101.809C709.575,106.924 707.064,113.062 707.064,120.13C707.064,127.384 709.575,133.522 714.69,138.544C719.712,143.659 725.85,146.17 733.011,146.17C740.172,146.17 746.31,143.659 751.425,138.544C756.447,133.522 759.051,127.384 759.051,120.13ZM765.561,120.13C765.561,124.594 764.631,128.872 762.957,132.778C761.283,136.777 758.958,140.218 755.982,143.194C753.006,146.17 749.565,148.495 745.659,150.169C741.66,151.843 737.475,152.68 733.011,152.68C728.547,152.68 724.269,151.843 720.363,150.169C716.457,148.495 713.016,146.17 710.04,143.194C707.064,140.218 704.739,136.777 703.065,132.778C701.391,128.872 700.554,124.594 700.554,120.13C700.554,115.666 701.391,111.481 703.065,107.482C704.739,103.576 707.064,100.135 710.04,97.159C713.016,94.276 716.457,91.951 720.363,90.277C724.269,88.603 728.547,87.673 733.011,87.673C737.475,87.673 741.66,88.603 745.659,90.277C749.565,91.951 753.006,94.276 755.982,97.159C758.958,100.135 761.283,103.576 762.957,107.482C764.631,111.481 765.561,115.666 765.561,120.13ZM783.237,120.688L797.931,120.688C801.558,120.688 804.534,119.479 806.952,116.968C809.37,114.457 810.579,111.388 810.579,107.668C810.579,103.948 809.37,100.972 807.138,98.554C804.813,96.136 801.744,94.927 797.931,94.927L783.237,94.927L783.237,120.688ZM817.089,107.761C817.089,113.341 815.043,117.991 811.137,121.618C807.696,124.873 803.511,126.64 798.582,126.919L818.112,151.936L809.37,151.936L790.77,126.919L783.237,126.919L783.237,151.936L776.727,151.936L776.727,88.696L797.001,88.696C802.581,88.696 807.324,90.556 811.137,94.09C815.043,97.717 817.089,102.367 817.089,107.761ZM833.824,151.936L827.314,151.936L827.314,88.696L833.824,88.696L833.824,118.456L855.121,88.696L863.491,88.696L840.241,120.316L863.491,151.936L855.121,151.936L833.824,122.269L833.824,151.936Z" style="fill-rule:nonzero;"/>
            </g>
        </g>
    </g>
</svg>
