<?xml version="1.0" encoding="UTF-8" standalone="no"?>
<!DOCTYPE svg PUBLIC "-//W3C//DTD SVG 1.1//EN" "http://www.w3.org/Graphics/SVG/1.1/DTD/svg11.dtd">
<svg width="100%" height="100%" viewBox="0 0 92 27" version="1.1" xmlns="http://www.w3.org/2000/svg" xmlns:xlink="http://www.w3.org/1999/xlink" xml:space="preserve" xmlns:serif="http://www.serif.com/" style="fill-rule:evenodd;clip-rule:evenodd;stroke-linejoin:round;stroke-miterlimit:2;">
    <g transform="matrix(1,0,0,1,-1317.89,-156.253)">
        <path d="M1348.75,174.852C1349.03,174.817 1349.22,174.567 1349.19,174.293C1349.15,174.019 1348.9,173.825 1348.63,173.86L1348.75,174.852ZM1338.77,157.903L1338.46,158.297L1338.77,157.903ZM1318.33,159.659C1318.06,159.686 1317.86,159.931 1317.89,160.206L1318.34,164.686C1318.36,164.961 1318.61,165.161 1318.88,165.134C1319.16,165.107 1319.36,164.862 1319.33,164.588L1318.93,160.606L1322.91,160.214C1323.19,160.186 1323.39,159.942 1323.36,159.667C1323.33,159.392 1323.09,159.191 1322.81,159.218L1318.33,159.659ZM1329.51,161.036L1329.99,161.168L1329.51,161.036ZM1338.46,158.297C1340.68,160.028 1340.98,162.394 1340.15,164.347C1339.31,166.326 1337.3,167.862 1334.91,167.861L1334.91,168.862C1337.75,168.862 1340.08,167.05 1341.07,164.741C1342.06,162.404 1341.68,159.541 1339.08,157.509L1338.46,158.297ZM1334.91,167.861C1332.36,167.861 1330.32,167.472 1327.92,166.285C1325.51,165.086 1322.72,163.068 1318.7,159.77L1318.07,160.544C1322.09,163.844 1324.95,165.927 1327.48,167.181C1330.03,168.446 1332.23,168.861 1334.91,168.862L1334.91,167.861ZM1348.63,173.86C1340.85,174.848 1335.83,172.95 1332.95,170.207C1330.06,167.453 1329.27,163.809 1329.99,161.168L1329.03,160.903C1328.2,163.922 1329.12,167.94 1332.26,170.931C1335.42,173.935 1340.77,175.867 1348.75,174.852L1348.63,173.86ZM1329.99,161.168C1330.35,159.869 1331.62,158.472 1333.27,157.745C1334.89,157.029 1336.8,157 1338.46,158.297L1339.08,157.509C1337.06,155.937 1334.75,155.999 1332.86,156.83C1331,157.649 1329.48,159.253 1329.03,160.903L1329.99,161.168Z" style="fill-rule:nonzero;"/>
        <path d="M1353.12,182.01L1353.12,165.522L1353.99,165.522L1360.61,177.978L1367.23,165.522L1368.1,165.522L1368.1,182.01L1367.23,182.01L1367.23,167.25L1360.61,179.706L1353.99,167.25L1353.99,182.01L1353.12,182.01ZM1377.59,181.434C1379.37,181.434 1381.14,180.858 1382.17,179.73L1382.77,180.378C1381.74,181.506 1379.58,182.298 1377.59,182.298C1374.28,182.298 1371.49,179.322 1371.49,175.77C1371.49,172.146 1374.18,169.314 1377.59,169.314C1381.14,169.314 1383.49,172.074 1383.49,176.202L1372.38,176.202C1372.57,179.082 1374.9,181.434 1377.59,181.434ZM1377.59,170.178C1374.81,170.178 1372.57,172.434 1372.38,175.338L1382.63,175.338C1382.49,172.242 1380.52,170.178 1377.59,170.178ZM1391.41,169.314C1394.12,169.314 1396.04,171.21 1396.04,173.874L1396.04,182.01L1395.18,182.01L1395.18,173.994C1395.18,171.762 1393.57,170.178 1391.29,170.178C1388.96,170.178 1387.33,171.81 1387.33,174.09L1387.33,182.01L1386.46,182.01L1386.46,169.602L1387.33,169.602L1387.33,171.762C1387.95,170.274 1389.46,169.314 1391.41,169.314ZM1408.39,169.602L1409.26,169.602L1409.26,182.01L1408.39,182.01L1408.39,179.85C1407.77,181.338 1406.26,182.298 1404.31,182.298C1401.6,182.298 1399.68,180.402 1399.68,177.738L1399.68,169.602L1400.55,169.602L1400.55,177.618C1400.55,179.85 1402.15,181.434 1404.43,181.434C1406.76,181.434 1408.39,179.802 1408.39,177.522L1408.39,169.602Z" style="fill-rule:nonzero;"/>
    </g>
</svg>
