<?xml version="1.0" encoding="UTF-8" standalone="no"?>
<!DOCTYPE svg PUBLIC "-//W3C//DTD SVG 1.1//EN" "http://www.w3.org/Graphics/SVG/1.1/DTD/svg11.dtd">
<svg width="100%" height="100%" viewBox="0 0 346 358" version="1.1" xmlns="http://www.w3.org/2000/svg" xmlns:xlink="http://www.w3.org/1999/xlink" xml:space="preserve" xmlns:serif="http://www.serif.com/" style="fill-rule:evenodd;clip-rule:evenodd;">
    <g transform="matrix(1,0,0,1,-519.715,-229.751)">
        <path d="M520.176,414.017C514.903,346.539 553.999,231.084 683.37,229.768C812.741,228.452 865.141,305.227 865.373,397.462C865.607,489.696 795.927,586.884 707.423,587.494C618.92,588.105 529.108,528.315 520.176,414.017Z" style="fill:white;"/>
        <clipPath id="_clip1">
            <path d="M520.176,414.017C514.903,346.539 553.999,231.084 683.37,229.768C812.741,228.452 865.141,305.227 865.373,397.462C865.607,489.696 795.927,586.884 707.423,587.494C618.92,588.105 529.108,528.315 520.176,414.017Z"/>
        </clipPath>
        <g clip-path="url(#_clip1)">
            <path d="M664.731,209.098L510.18,479.2L528.446,507.121L688.186,207.641L720.124,205.657L552.263,535.699L587.683,565.561L758.107,220.33L796.276,237.998L621.171,588.528L675.312,597.188L850.346,269.706L864.427,310.913L716.231,602.662L744.676,600.895L880.939,358.981L790.345,578.02L492.821,441.704L506.336,417.319L839.858,536.37L781.605,598.601L470.408,492.19L489.195,383.316L875.277,485.576L886.953,455.795L515.829,304.012L546,273.583L884.566,417.369L895.706,403.151L512.822,255.606L575.459,231.676L891.769,339.773" style="fill:none;fill-rule:nonzero;stroke:black;stroke-width:1px;"/>
        </g>
    </g>
</svg>
